<?xml version="1.0" encoding="utf-8"?>
<!-- Generator: Adobe Illustrator 20.0.0, SVG Export Plug-In . SVG Version: 6.00 Build 0)  -->
<svg version="1.1" id="Layer_1" xmlns="http://www.w3.org/2000/svg" xmlns:xlink="http://www.w3.org/1999/xlink" x="0px" y="0px"
	 viewBox="0 0 69 41" style="enable-background:new 0 0 69 41;" xml:space="preserve">
<style type="text/css">
	.st0{fill:#FFFFFF;}
</style>
<g>
	<path class="st0" d="M18.7,2.2v29.2c0,5.1-4.2,9.3-9.2,9.3c-5.1,0-9.3-4.2-9.3-9.3V2.2c0-0.7,0.6-1.3,1.3-1.3H4
		c0.7,0,1.3,0.6,1.3,1.3v29.2c0,2.3,1.8,4.2,4.2,4.2c2.2,0,4.1-1.8,4.1-4.2V2.2c0-0.7,0.6-1.3,1.3-1.3h2.6
		C18.2,0.9,18.7,1.5,18.7,2.2z"/>
	<path class="st0" d="M43.8,10.2v29.2c0,0.6-0.6,1.3-1.3,1.3h-2.6c-0.7,0-1.3-0.6-1.3-1.3V10.2c0-2.2-1.8-4.1-4.1-4.1
		c-2.3,0-4.2,1.8-4.2,4.1v29.2c0,0.6-0.6,1.3-1.3,1.3h-2.6c-0.7,0-1.3-0.6-1.3-1.3V10.2c0-5.1,4.2-9.2,9.3-9.2
		C39.6,0.9,43.8,5.1,43.8,10.2z"/>
	<path class="st0" d="M68.8,10.2v21.2c0,5.1-4.2,9.3-9.2,9.3c-5.1,0-9.3-4.2-9.3-9.3V10.2c0-5.1,4.2-9.2,9.3-9.2
		C64.7,0.9,68.8,5.1,68.8,10.2z M63.7,10.2c0-2.2-1.8-4.1-4.1-4.1c-2.3,0-4.2,1.8-4.2,4.1v21.2c0,2.3,1.8,4.2,4.2,4.2
		c2.2,0,4.1-1.8,4.1-4.2V10.2z"/>
</g>
</svg>
